<svg width="24" height="24" viewBox="0 0 24 24" fill="none" xmlns="http://www.w3.org/2000/svg">
<path d="M14.1207 14.1213C15.2923 12.9497 15.2923 11.0503 14.1207 9.87868C12.9492 8.70711 11.0497 8.70711 9.87809 9.87868C8.70652 11.0503 8.70652 12.9497 9.87809 14.1213C11.0497 15.2929 12.9492 15.2929 14.1207 14.1213Z" stroke="black" stroke-width="1.5" stroke-miterlimit="1.5" stroke-linecap="round" stroke-linejoin="round"/>
<path fill-rule="evenodd" clip-rule="evenodd" d="M9.87868 9.87887C9.87868 9.87887 7.07642 9.88806 5.63604 8.46466C4.22749 7.05469 2.77156 5.67088 4.22183 4.22202C5.59998 2.84528 7.03117 4.20717 8.46447 5.63623C9.8702 7.03772 9.87868 9.87887 9.87868 9.87887Z" stroke="black" stroke-width="1.5" stroke-miterlimit="1.5" stroke-linecap="round" stroke-linejoin="round"/>
<path fill-rule="evenodd" clip-rule="evenodd" d="M14.1213 9.87868C14.1213 9.87868 14.1121 7.07642 15.5355 5.63604C16.9455 4.22749 18.3293 2.77156 19.7782 4.22183C21.1549 5.59998 19.793 7.03117 18.364 8.46447C16.9625 9.8702 14.1213 9.87868 14.1213 9.87868Z" stroke="black" stroke-width="1.5" stroke-miterlimit="1.5" stroke-linecap="round" stroke-linejoin="round"/>
<path fill-rule="evenodd" clip-rule="evenodd" d="M9.87863 14.1213C9.87863 14.1213 9.88782 16.9236 8.46441 18.364C7.05444 19.7725 5.67063 21.2284 4.22177 19.7782C2.84504 18.4 4.20692 16.9688 5.63599 15.5355C7.03747 14.1298 9.87863 14.1213 9.87863 14.1213Z" stroke="black" stroke-width="1.5" stroke-miterlimit="1.5" stroke-linecap="round" stroke-linejoin="round"/>
<path fill-rule="evenodd" clip-rule="evenodd" d="M14.1213 14.1211C14.1213 14.1211 16.9236 14.1119 18.364 15.5353C19.7725 16.9453 21.2284 18.3291 19.7782 19.778C18.4 21.1547 16.9688 19.7928 15.5355 18.3638C14.1298 16.9623 14.1213 14.1211 14.1213 14.1211Z" stroke="black" stroke-width="1.5" stroke-miterlimit="1.5" stroke-linecap="round" stroke-linejoin="round"/>
</svg>
