<svg width="24" height="24" viewBox="0 0 24 24" fill="none" xmlns="http://www.w3.org/2000/svg">
<path d="M7 10.4999L4.99591 13.172C4.41845 13.942 4.47127 15.014 5.1216 15.7235L8.9055 19.8513C9.28432 20.2646 9.81826 20.4999 10.3789 20.4999C11.4651 20.4999 13.2415 20.4999 15 20.4999C17.4 20.4999 19 18.9998 19 16.4999C19 16.4999 19 16.4999 19 16.4999C19 16.4999 19 9.64275 19 7.92847" stroke="black" stroke-width="1.5" stroke-linecap="round" stroke-linejoin="round"/>
<path d="M16 8.50007C16 8.50007 16 8.37495 16 7.92864C16 5.64293 19 5.64293 19 7.92864" stroke="black" stroke-width="1.5" stroke-linecap="round" stroke-linejoin="round"/>
<path d="M13 8.5002C13 8.5002 13 7.9199 13 7.02727M13 6.5002C13 6.5002 13 6.80412 13 7.02727M16 8.5002C16 8.5002 16 8.37509 16 7.92877C16 7.70562 16 7.25043 16 7.02727C16 4.74156 13 4.74156 13 7.02727" stroke="black" stroke-width="1.5" stroke-linecap="round" stroke-linejoin="round"/>
<path d="M13 8.5002C13 8.5002 13 7.9199 13 7.02727C13 4.74156 16 4.74156 16 7.02727C16 7.25043 16 7.70562 16 7.92877C16 8.37509 16 8.5002 16 8.5002" stroke="black" stroke-width="1.5" stroke-linecap="round" stroke-linejoin="round"/>
<path d="M10 8.49993C10 8.49993 10 7.85707 10 6.49993C10 4.21422 13 4.21422 13 6.49993C13 6.49993 13 6.49993 13 6.49993C13 6.49993 13 6.80385 13 7.027C13 7.91963 13 8.49993 13 8.49993" stroke="black" stroke-width="1.5" stroke-linecap="round" stroke-linejoin="round"/>
<path d="M7 13.5001V6.50006C7 5.67164 7.67157 5.00006 8.5 5.00006V5.00006C9.32843 5.00006 10 5.55527 10 6.38369C10 6.42151 10 6.4603 10 6.50006C10 7.85721 10 8.50006 10 8.50006" stroke="black" stroke-width="1.5" stroke-linecap="round" stroke-linejoin="round"/>
</svg>
