<svg width="24" height="24" viewBox="0 0 24 24" fill="none" xmlns="http://www.w3.org/2000/svg">
<path d="M3.99997 3H20.0001C20.5523 3 21 3.44764 21.0001 3.99987L21.0003 5.58569C21.0003 5.85097 20.895 6.10538 20.7074 6.29295L14.2929 12.7071C14.1053 12.8946 14 13.149 14 13.4142L14 19.7192C14 20.3698 13.3886 20.8472 12.7574 20.6894L10.7574 20.1894C10.3123 20.0781 9.99997 19.6781 9.99997 19.2192L9.99998 13.4142C9.99998 13.149 9.89462 12.8946 9.70708 12.7071L3.29287 6.29289C3.10533 6.10536 2.99997 5.851 2.99997 5.58579V4C2.99997 3.44772 3.44769 3 3.99997 3Z" stroke="black" stroke-width="1.5" stroke-linecap="round" stroke-linejoin="round"/>
</svg>
