<svg width="24" height="24" viewBox="0 0 24 24" fill="none" xmlns="http://www.w3.org/2000/svg">
<path d="M4.11549 14.0149C3.9573 15.3855 3.95994 16.6715 4.01204 17.6795C4.0774 18.9439 5.05613 19.9227 6.32056 19.988C7.32855 20.0401 8.61459 20.0428 9.98514 19.8846M4.11549 14.0149C4.3938 11.6036 5.16994 8.93063 7.05032 7.05025C8.9307 5.16988 11.6036 4.39374 14.015 4.11543M4.11549 14.0149L9.98514 19.8846M9.98514 19.8846C12.3965 19.6063 15.0694 18.8301 16.9498 16.9497C18.8302 15.0694 19.6063 12.3964 19.8846 9.98508M14.015 4.11543C15.3855 3.95724 16.6716 3.95988 17.6796 4.01198C18.944 4.07734 19.9227 5.05607 19.9881 6.3205C20.0402 7.32849 20.0428 8.61453 19.8846 9.98508M14.015 4.11543L19.8846 9.98508M9.17164 14.8284L10.5858 13.4142M10.5858 13.4142L9.17164 12M10.5858 13.4142L12.0001 14.8284M10.5858 13.4142L13.4143 10.5858M13.4143 10.5858L14.8285 9.17158M13.4143 10.5858L12.0001 9.17158M13.4143 10.5858L14.8285 12" stroke="black" stroke-width="1.5" stroke-linecap="round" stroke-linejoin="round"/>
</svg>
