<svg width="24" height="24" viewBox="0 0 24 24" fill="none" xmlns="http://www.w3.org/2000/svg">
<path d="M17.5 12.0001L19.5041 14.6722C20.0815 15.4421 20.0287 16.5142 19.3784 17.2236L15.5945 21.3515C15.2157 21.7648 14.6817 22.0001 14.1211 22.0001C13.0349 22.0001 11.2585 22.0001 9.5 22.0001C7.14159 22.0001 5.87758 19.425 5.51817 18.0706C5.50559 18.0232 5.5 17.9763 5.5 17.9273C5.5 17.1883 5.5 11.0391 5.5 9.42864C5.5 7.14293 8.5 7.14293 8.5 9.42864C8.5 9.87495 8.5 10.0001 8.5 10.0001" stroke="black" stroke-width="1.5" stroke-linecap="round" stroke-linejoin="round"/>
<path d="M11.5 9.99986C11.5 9.99986 11.5 9.1782 11.5 8.28557C11.5 5.99986 8.5 5.99986 8.5 8.28557C8.5 8.50873 8.5 9.20528 8.5 9.42843C8.5 9.87475 8.5 9.99986 8.5 9.99986" stroke="black" stroke-width="1.5" stroke-linecap="round" stroke-linejoin="round"/>
<path d="M14.5 9.99993C14.5 9.99993 14.5 8.61571 14.5 7.49993C14.5 5.21422 11.5 5.21422 11.5 7.49993C11.5 7.49993 11.5 7.49993 11.5 7.49993C11.5 7.49993 11.5 8.06249 11.5 8.28565C11.5 9.17827 11.5 9.99993 11.5 9.99993" stroke="black" stroke-width="1.5" stroke-linecap="round" stroke-linejoin="round"/>
<path d="M14.5 10C14.5 10 14.5 8.61578 14.5 7.5C14.5 6.34156 14.5 4.68968 14.5 3.49899C14.5 2.67056 15.1716 2 16 2V2C16.8284 2 17.5 2.67157 17.5 3.5V12V15" stroke="black" stroke-width="1.5" stroke-linecap="round" stroke-linejoin="round"/>
<path d="M17.5625 6.5H19.625C20.5 6.5 21 6.07843 21 5.25C21 4.42157 20.5 4 19.625 4H17.5625H14.4375H12.25C11.5596 4 11 4.55964 11 5.25V5.5C11 6.05228 11.4477 6.5 12 6.5V6.5" stroke="black" stroke-width="1.5"/>
</svg>
