<svg width="24" height="24" viewBox="0 0 24 24" fill="none" xmlns="http://www.w3.org/2000/svg">
<path d="M13.8787 7.6966L16 9.81792C16.3905 10.2084 16.3905 10.8416 16 11.2321L8.36325 18.8689C8.26989 18.9622 8.15897 19.0362 8.03689 19.0865L5.54026 20.1145C4.30736 20.6221 3.07445 19.3892 3.58212 18.1563L4.61014 15.6597C4.66041 15.5376 4.73436 15.4267 4.82771 15.3334L12.4645 7.6966C12.855 7.30607 13.4882 7.30607 13.8787 7.6966Z" stroke="black" stroke-width="1.5" stroke-linecap="round" stroke-linejoin="round"/>
<path d="M13.8787 3.45401L16 5.57533M20.2426 9.81798L18.1213 7.69666M16 5.57533L17.4142 4.16112C17.8047 3.7706 18.4379 3.7706 18.8284 4.16112L19.5355 4.86823C19.9261 5.25875 19.9261 5.89192 19.5355 6.28244L18.1213 7.69666M16 5.57533L18.1213 7.69666" stroke="black" stroke-width="1.5" stroke-linecap="round" stroke-linejoin="round"/>
</svg>
