<svg width="24" height="24" viewBox="0 0 24 24" fill="none" xmlns="http://www.w3.org/2000/svg">
<path d="M8.42693 13.0064C8.3695 13.0053 8.3695 13.0053 8.31226 13C7.67895 12.9296 7.21689 12.3021 7.28022 11.5983L7.89051 4.1532C7.94942 3.49854 8.44517 3 9.03724 3H13.5001C13.6275 3 13.7541 3.0235 13.8747 3.06956C14.4766 3.29947 14.7968 4.02807 14.5899 4.69693L13.1009 8.80233L15.8475 8.80235C16.0507 8.80235 16.2503 8.86206 16.4261 8.97543C16.9765 9.33051 17.1637 10.1142 16.8442 10.7259C16.4297 11.5409 12.2642 18.5413 10.9181 20.8004C10.8109 20.9802 10.5366 20.8921 10.5489 20.6831L10.9996 13L8.42693 13.0064Z" stroke="black" stroke-width="1.5" stroke-linecap="round" stroke-linejoin="round"/>
</svg>
