<svg width="24" height="24" viewBox="0 0 24 24" fill="none" xmlns="http://www.w3.org/2000/svg">
<path d="M16 22.0268V19.1568C16.0375 18.68 15.973 18.2006 15.811 17.7506C15.6489 17.3006 15.3929 16.8902 15.06 16.5468C18.2 16.1968 21.5 15.0068 21.5 9.54679C21.4997 8.15062 20.9626 6.80799 20 5.79679C20.4558 4.5753 20.4236 3.22514 19.91 2.02679C19.91 2.02679 18.73 1.67679 16 3.50679C13.708 2.88561 11.2919 2.88561 8.99995 3.50679C6.26995 1.67679 5.08996 2.02679 5.08996 2.02679C4.57633 3.22514 4.5441 4.5753 4.99995 5.79679C4.03008 6.81549 3.49248 8.17026 3.49995 9.57679C3.49995 14.9968 6.79995 16.1868 9.93995 16.5768C9.61095 16.9168 9.35722 17.3222 9.19526 17.7667C9.03331 18.2112 8.96676 18.6849 8.99995 19.1568V22.0268" stroke="black" stroke-width="1.5" stroke-linecap="round" stroke-linejoin="round"/>
<path d="M9 20.0269C6 21.0001 3.5 20.0269 2 17.0269" stroke="black" stroke-width="1.5" stroke-linecap="round" stroke-linejoin="round"/>
</svg>
