<svg width="24" height="24" viewBox="0 0 24 24" fill="none" xmlns="http://www.w3.org/2000/svg">
<path d="M11 5V19C11 20.1046 11.8954 21 13 21C14.1046 21 15 20.1046 15 19L15 5C15 3.89543 14.1046 3 13 3C11.8954 3 11 3.89543 11 5Z" stroke="black" stroke-width="1.5" stroke-linecap="round" stroke-linejoin="round"/>
<path d="M11.6397 3.52916L6.74738 8.17181C5.94615 8.93214 5.913 10.198 6.67334 10.9993C7.43368 11.8005 8.69957 11.8336 9.5008 11.0733L14.3931 6.43066C15.1943 5.67033 15.2275 4.40443 14.4672 3.6032C13.7068 2.80198 12.4409 2.76883 11.6397 3.52916Z" stroke="black" stroke-width="1.5" stroke-linecap="round" stroke-linejoin="round"/>
</svg>
