<svg width="24" height="24" viewBox="0 0 24 24" fill="none" xmlns="http://www.w3.org/2000/svg">
<path d="M7.5 11.9999L5.49591 14.672C4.91845 15.442 4.97127 16.514 5.6216 17.2235L9.4055 21.3513C9.78431 21.7646 10.3183 21.9999 10.8789 21.9999C11.9651 21.9999 13.7415 21.9999 15.5 21.9999C17.9 21.9999 19.5 19.9999 19.5 17.9999C19.5 17.9999 19.5 17.9999 19.5 17.9999C19.5 17.9999 19.5 11.1428 19.5 9.42847" stroke="black" stroke-width="1.5" stroke-linecap="round" stroke-linejoin="round"/>
<path d="M16.5 10.0001C16.5 10.0001 16.5 9.87495 16.5 9.42864C16.5 7.14293 19.5 7.14293 19.5 9.42864" stroke="black" stroke-width="1.5" stroke-linecap="round" stroke-linejoin="round"/>
<path d="M13.5 9.99986C13.5 9.99986 13.5 9.1782 13.5 8.28557C13.5 5.99986 16.5 5.99986 16.5 8.28557C16.5 8.50873 16.5 9.20528 16.5 9.42843C16.5 9.87475 16.5 9.99986 16.5 9.99986" stroke="black" stroke-width="1.5" stroke-linecap="round" stroke-linejoin="round"/>
<path d="M10.5 9.99993C10.5 9.99993 10.5 8.61571 10.5 7.49993C10.5 5.21422 13.5 5.21422 13.5 7.49993C13.5 7.49993 13.5 7.49993 13.5 7.49993C13.5 7.49993 13.5 8.06249 13.5 8.28565C13.5 9.17827 13.5 9.99993 13.5 9.99993" stroke="black" stroke-width="1.5" stroke-linecap="round" stroke-linejoin="round"/>
<path d="M10.5 10C10.5 10 10.5 8.61578 10.5 7.5C10.5 6.34156 10.5 4.68968 10.5 3.49899C10.5 2.67056 9.82843 2 9 2V2C8.17157 2 7.5 2.67157 7.5 3.5V12V15" stroke="black" stroke-width="1.5" stroke-linecap="round" stroke-linejoin="round"/>
</svg>
