<svg width="24" height="24" viewBox="0 0 24 24" fill="none" xmlns="http://www.w3.org/2000/svg">
<path d="M20.485 3H16.4933L16.9933 8C16.9933 8 17.9933 9 19.4933 9C20.5703 9 21.3036 8.48445 21.6316 8.1937C21.7623 8.07782 21.8101 7.90091 21.7814 7.72861L21.0768 3.50136C21.0286 3.21205 20.7783 3 20.485 3Z" stroke="black" stroke-width="1.5"/>
<path d="M16.4933 3L16.9933 8C16.9933 8 15.9933 9 14.4933 9C12.9933 9 11.9933 8 11.9933 8V3H16.4933Z" stroke="black" stroke-width="1.5"/>
<path d="M11.9933 3V8C11.9933 8 10.9933 9 9.49329 9C7.99329 9 6.99329 8 6.99329 8L7.49329 3H11.9933Z" stroke="black" stroke-width="1.5"/>
<path d="M7.49337 3H3.50164C3.20834 3 2.95803 3.21205 2.90981 3.50136L2.20526 7.72862C2.17655 7.90091 2.22438 8.07782 2.35508 8.1937C2.683 8.48445 3.41632 9 4.49335 9C5.99335 9 6.99337 8 6.99337 8L7.49337 3Z" stroke="black" stroke-width="1.5"/>
<path d="M3 9V19C3 20.1046 3.89543 21 5 21H19C20.1046 21 21 20.1046 21 19V9" stroke="black" stroke-width="1.5"/>
<path d="M14.8333 21V15C14.8333 13.8954 13.9378 13 12.8333 13H10.8333C9.72868 13 8.83325 13.8954 8.83325 15V21" stroke="black" stroke-width="1.5" stroke-miterlimit="16"/>
</svg>
