<svg width="24" height="24" viewBox="0 0 24 24" fill="none" xmlns="http://www.w3.org/2000/svg">
<path d="M2.87601 18.1157C2.92196 17.7022 2.94493 17.4955 3.00749 17.3022C3.06299 17.1308 3.14141 16.9676 3.24061 16.8172C3.35243 16.6476 3.49952 16.5005 3.7937 16.2063L17 3.00006C18.1046 1.89549 19.8954 1.89549 21 3.00006C22.1046 4.10463 22.1046 5.89549 21 7.00006L7.7937 20.2063C7.49952 20.5005 7.35243 20.6476 7.18286 20.7594C7.03242 20.8586 6.86926 20.937 6.69782 20.9925C6.50458 21.0551 6.29783 21.0781 5.88434 21.124L2.49997 21.5001L2.87601 18.1157Z" stroke="black" stroke-width="2" stroke-linecap="round" stroke-linejoin="round"/>
</svg>
