<svg width="24" height="24" viewBox="0 0 24 24" fill="none" xmlns="http://www.w3.org/2000/svg">
<path d="M11.3063 3.20703C11.5338 2.81117 11.6476 2.61324 11.7962 2.54691C11.9259 2.48905 12.074 2.48905 12.2037 2.54691C12.3524 2.61324 12.4661 2.81117 12.6936 3.20703L14.6487 6.60935C14.733 6.75589 14.7751 6.82916 14.8341 6.88241C14.8863 6.92952 14.9479 6.96508 15.0148 6.98676C15.0905 7.01127 15.175 7.0111 15.344 7.01075L19.2681 7.00282C19.7246 7.00189 19.9529 7.00143 20.0847 7.09701C20.1996 7.18038 20.2737 7.30868 20.2884 7.4499C20.3053 7.61181 20.1908 7.80928 19.9617 8.20421L17.9928 11.5986C17.908 11.7448 17.8656 11.8179 17.849 11.8956C17.8343 11.9644 17.8343 12.0356 17.849 12.1044C17.8656 12.1821 17.908 12.2552 17.9928 12.4014L19.9617 15.7958C20.1908 16.1907 20.3053 16.3882 20.2884 16.5501C20.2737 16.6913 20.1996 16.8196 20.0847 16.903C19.9529 16.9986 19.7246 16.9981 19.2681 16.9972L15.344 16.9892C15.175 16.9889 15.0905 16.9887 15.0148 17.0132C14.9479 17.0349 14.8863 17.0705 14.8341 17.1176C14.7751 17.1708 14.733 17.2441 14.6487 17.3906L12.6936 20.793C12.4661 21.1888 12.3524 21.3868 12.2037 21.4531C12.074 21.5109 11.9259 21.5109 11.7962 21.4531C11.6476 21.3868 11.5338 21.1888 11.3063 20.793L9.35116 17.3906C9.26695 17.2441 9.22485 17.1708 9.16581 17.1176C9.11357 17.0705 9.05198 17.0349 8.98507 17.0132C8.90943 16.9887 8.82493 16.9889 8.65592 16.9892L4.73183 16.9972C4.27527 16.9981 4.04699 16.9986 3.91521 16.903C3.80027 16.8196 3.7262 16.6913 3.71147 16.5501C3.69458 16.3882 3.80913 16.1907 4.03821 15.7958L6.00712 12.4014C6.09193 12.2552 6.13433 12.1821 6.15092 12.1044C6.1656 12.0356 6.1656 11.9644 6.15092 11.8956C6.13433 11.8179 6.09192 11.7448 6.00712 11.5986L4.03821 8.20421C3.80913 7.80928 3.69458 7.61181 3.71147 7.4499C3.7262 7.30868 3.80027 7.18038 3.91521 7.09701C4.04699 7.00143 4.27527 7.00189 4.73184 7.00282L8.65592 7.01075C8.82493 7.0111 8.90943 7.01127 8.98507 6.98676C9.05198 6.96508 9.11357 6.92952 9.16581 6.88241C9.22485 6.82916 9.26695 6.75589 9.35116 6.60935L11.3063 3.20703Z" stroke="black" stroke-width="2" stroke-linecap="round" stroke-linejoin="round"/>
</svg>
