<svg width="24" height="24" viewBox="0 0 24 24" fill="none" xmlns="http://www.w3.org/2000/svg">
<path d="M16 8.00011V13.0001C16 13.7958 16.3161 14.5588 16.8787 15.1214C17.4413 15.684 18.2043 16.0001 19 16.0001C19.7956 16.0001 20.5587 15.684 21.1213 15.1214C21.6839 14.5588 22 13.7958 22 13.0001V12.0001C21.9999 9.74314 21.2362 7.55259 19.8333 5.78464C18.4303 4.0167 16.4705 2.77534 14.2726 2.26241C12.0747 1.74948 9.76793 1.99515 7.72734 2.95948C5.68676 3.9238 4.03239 5.55007 3.03325 7.57383C2.03411 9.5976 1.74896 11.8998 2.22416 14.1062C2.69936 16.3126 3.90697 18.2933 5.65062 19.7264C7.39428 21.1594 9.57143 21.9605 11.8281 21.9993C14.0847 22.0381 16.2881 21.3124 18.08 19.9401M16 12.0001C16 14.2093 14.2091 16.0001 12 16.0001C9.79086 16.0001 8 14.2093 8 12.0001C8 9.79097 9.79086 8.00011 12 8.00011C14.2091 8.00011 16 9.79097 16 12.0001Z" stroke="black" stroke-width="2" stroke-linecap="round" stroke-linejoin="round"/>
</svg>
